<svg width="659" height="717" viewBox="0 0 659 717" fill="none" xmlns="http://www.w3.org/2000/svg">
<g clip-path="url(#clip0_53_504)">
<mask id="mask0_53_504" style="mask-type:luminance" maskUnits="userSpaceOnUse" x="-14" y="-1" width="673" height="722">
<path d="M658.285 -0.323097H-13.5159V720.716H658.285V-0.323097Z" fill="white"/>
</mask>
<g mask="url(#mask0_53_504)">
<path d="M658.861 6.10352e-05H159.051V716.768H658.861V6.10352e-05Z" fill="#231338"/>
<path opacity="0.38" d="M375.199 385.786L365.4 706.71H438.217L426.751 383.484L375.199 385.786Z" fill="url(#paint0_linear_53_504)"/>
<path opacity="0.2" d="M368.532 389.816C368.532 389.816 364.208 473.937 408.264 478.128C408.264 478.128 435.419 466.919 437.288 387.049L368.532 389.816Z" fill="url(#paint1_linear_53_504)"/>
<path d="M378.382 389.816C378.382 389.816 383.433 448.61 403.031 459.021C403.031 459.021 418.063 449.842 425.771 389.816H378.382Z" fill="url(#paint2_linear_53_504)"/>
<path d="M344.478 267.744C344.478 267.744 312.858 337.98 312.454 355.713C312.05 373.446 338.872 445.106 343.599 433.674C348.327 422.242 337.892 387.756 361.561 373.082L350.59 323.125C348.347 314.49 346.903 305.667 346.276 296.767C345.721 288.497 344.983 277.388 344.478 267.744Z" fill="url(#paint3_linear_53_504)"/>
<path d="M459.21 262.786C459.21 262.786 490.81 333.031 491.214 350.744C491.618 368.457 464.796 440.127 460.069 428.726C455.341 417.324 464.039 384.645 440.369 369.992L452.997 318.197C455.249 309.559 456.703 300.733 457.341 291.829C457.897 283.447 458.634 272.45 459.21 262.786Z" fill="url(#paint4_linear_53_504)"/>
<path d="M390.838 148.126C372.189 165.425 340.064 207.94 342.993 294.556C343.227 300.149 344.074 305.699 345.519 311.107L365.723 389.876H436.167C436.167 389.876 454.179 325.144 457.947 308.643C467.544 266.482 453.906 187.359 417.396 148.884C413.929 145.323 409.205 143.261 404.236 143.138C399.266 143.015 394.446 144.842 390.807 148.227L390.838 148.126Z" fill="url(#paint5_linear_53_504)"/>
<path d="M390.838 148.126C372.189 165.425 340.064 207.94 342.993 294.556C343.227 300.149 344.074 305.699 345.519 311.107L365.723 389.876H436.167C436.167 389.876 454.179 325.144 457.947 308.643C467.544 266.482 453.906 187.359 417.396 148.884C413.929 145.323 409.205 143.261 404.236 143.138C399.266 143.015 394.446 144.842 390.807 148.227L390.838 148.126Z" fill="url(#paint6_linear_53_504)"/>
<path opacity="0.4" d="M399.526 293.415C393.111 334.142 382.776 367.872 365.824 389.816H394.394L399.526 293.415Z" fill="url(#paint7_linear_53_504)"/>
<path opacity="0.4" d="M456.886 236.095C456.886 236.095 451.28 357.5 418.669 389.816H436.348C436.348 389.816 474.363 290.789 456.886 236.095Z" fill="url(#paint8_linear_53_504)"/>
<g opacity="0.49">
<path d="M458.957 246.517C458.957 246.941 452.522 246.769 442.208 246.517C431.893 246.264 417.659 245.83 401.92 245.81C386.18 245.79 371.936 246.113 361.511 246.386C351.085 246.658 344.812 246.789 344.761 246.386C344.711 245.982 351.095 245.103 361.41 244.366C371.724 243.629 386.009 242.901 401.819 242.901C417.629 242.901 431.903 243.629 442.228 244.457C452.552 245.285 458.988 246.083 458.957 246.517Z" fill="#6D42CA"/>
</g>
<g opacity="0.49">
<path d="M461.028 255.777C461.028 256.181 454.442 255.777 443.854 255.323C433.267 254.868 418.599 253.959 402.526 253.374C386.453 252.788 371.734 252.525 361.157 252.364C350.58 252.202 343.983 251.98 343.983 251.556C343.983 251.132 350.53 250.546 361.157 250.273C371.785 250.001 386.413 249.87 402.657 250.445C418.902 251.021 433.479 252.162 444.077 253.273C454.674 254.384 461.059 255.373 461.028 255.777Z" fill="#6D42CA"/>
</g>
<g opacity="0.43">
<path d="M439.46 386.645C439.46 387.453 422.761 387.877 402.172 387.604C381.584 387.332 364.895 386.413 364.915 385.584C364.935 384.756 381.614 384.342 402.203 384.645C422.791 384.948 439.48 385.807 439.46 386.645Z" fill="#6D42CA"/>
</g>
<g opacity="0.43">
<path d="M438.399 380.01C438.399 380.838 421.296 381.424 400.233 381.323C379.17 381.222 362.036 380.485 362.036 379.657C362.036 378.829 379.139 378.263 400.233 378.364C421.326 378.465 438.399 379.202 438.399 380.01Z" fill="#6D42CA"/>
</g>
<path opacity="0.19" d="M427.287 255.545C426.716 261.362 424.145 266.802 420.01 270.935C415.875 275.068 410.434 277.639 404.614 278.209C398.795 278.779 392.958 277.313 388.099 274.06C383.24 270.808 379.661 265.971 377.972 260.375C376.283 254.779 376.589 248.77 378.838 243.375C381.086 237.979 385.138 233.53 390.302 230.788C395.466 228.045 401.422 227.179 407.153 228.336C412.885 229.494 418.037 232.604 421.73 237.135C425.939 242.299 427.937 248.916 427.287 255.545Z" fill="#3F2D40"/>
<path d="M429.125 251.455C428.546 257.271 425.966 262.706 421.825 266.832C417.684 270.958 412.24 273.521 406.42 274.082C400.601 274.644 394.766 273.17 389.913 269.911C385.059 266.652 381.487 261.811 379.805 256.213C378.124 250.616 378.437 244.608 380.692 239.216C382.947 233.823 387.004 229.38 392.17 226.644C397.337 223.908 403.293 223.048 409.023 224.212C414.752 225.375 419.901 228.49 423.589 233.025C427.802 238.194 429.793 244.821 429.125 251.455Z" fill="url(#paint9_linear_53_504)"/>
<path opacity="0.28" d="M382.675 262.109L417.841 227.774C417.841 227.774 424.68 232.944 426.428 237.256L389.373 269.309C389.373 269.309 383.15 265.563 382.675 262.109Z" fill="#E9C0AA"/>
<path opacity="0.28" d="M395.151 272.399L427.539 239.751L428.873 244.527L399.93 273.692L395.151 272.399Z" fill="#E9C0AA"/>
<path opacity="0.42" d="M368.754 291.425C368.745 291.784 368.637 292.134 368.441 292.435C368.231 292.748 367.932 292.991 367.582 293.132C367.237 293.275 366.858 293.313 366.491 293.243C366.107 293.179 365.754 292.995 365.481 292.718C365.224 292.457 365.049 292.127 364.977 291.768C364.905 291.409 364.94 291.038 365.077 290.698C365.221 290.353 365.463 290.058 365.774 289.85C366.074 289.649 366.424 289.537 366.784 289.527C367.285 289.537 367.762 289.739 368.118 290.092C368.308 290.26 368.463 290.464 368.572 290.694C368.682 290.923 368.744 291.172 368.754 291.425Z" fill="#6D42CA"/>
<path opacity="0.42" d="M368.754 296.979C368.745 297.339 368.637 297.688 368.441 297.989C368.225 298.297 367.928 298.538 367.582 298.686C367.237 298.83 366.857 298.866 366.491 298.787C366.11 298.723 365.757 298.543 365.481 298.272C365.219 298.006 365.04 297.669 364.969 297.302C364.898 296.935 364.936 296.555 365.08 296.21C365.223 295.865 365.465 295.57 365.775 295.362C366.086 295.154 366.451 295.042 366.825 295.041C367.327 295.043 367.807 295.244 368.161 295.6C368.515 295.956 368.714 296.437 368.714 296.939L368.754 296.979Z" fill="#6D42CA"/>
<path opacity="0.42" d="M368.754 303.059C368.754 303.498 368.601 303.924 368.322 304.263C368.043 304.602 367.655 304.834 367.224 304.92C366.793 305.005 366.346 304.939 365.959 304.731C365.571 304.524 365.268 304.189 365.1 303.783C364.932 303.377 364.91 302.926 365.038 302.505C365.165 302.085 365.435 301.722 365.8 301.478C366.166 301.235 366.605 301.125 367.042 301.168C367.479 301.211 367.888 301.405 368.198 301.716C368.375 301.892 368.515 302.102 368.61 302.332C368.705 302.562 368.754 302.809 368.754 303.059Z" fill="#6D42CA"/>
<path d="M403.112 291.526C403.112 291.526 392.808 293.091 392.828 342.019C392.828 401.49 395.96 432.674 401.092 432.24C406.224 431.806 422.842 288.8 403.112 291.526Z" fill="url(#paint10_linear_53_504)"/>
<path opacity="0.2" d="M362.036 188.208C362.036 188.208 401.698 207.91 442.44 188.208C442.44 188.208 426.6 138.634 402.203 143.047C377.806 147.46 362.036 188.208 362.036 188.208Z" fill="#6D42CA"/>
<path d="M263.68 179.785L211.411 145.248L267.489 117.315L263.68 179.785ZM218.715 145.703L260.397 173.252L263.428 123.415L218.715 145.703Z" fill="#3C7CC5"/>
<path d="M544.645 279.973L573.285 224.31L607.228 276.914L544.645 279.973ZM573.638 231.682L550.908 276.116L600.813 273.591L573.638 231.682Z" fill="#B495E4"/>
<path d="M335.215 62.0054V38.7181L355.419 50.4021L335.215 62.0054ZM337.083 41.8082V58.8042L351.813 50.3516L337.083 41.8082Z" fill="#F0E430"/>
<g opacity="0.29">
<path d="M478.03 105.884L453.209 94.0785L475.939 78.5065L478.03 105.884ZM460.503 93.4928L473.858 99.8751L472.696 85.1211L460.503 93.4928Z" fill="#5850FD"/>
</g>
<path opacity="0.29" d="M322.031 533.731L312.454 529.186L302.907 524.652L311.616 518.664L320.334 512.665L321.172 523.208L322.031 533.731Z" stroke="#5850FD" stroke-miterlimit="10"/>
<g opacity="0.29">
<path d="M248.971 428.17L215.634 391.533L264.064 381.04L248.971 428.17ZM222.635 393.754L247.406 421.02L258.68 385.928L222.635 393.754Z" fill="#B495E4"/>
</g>
<path d="M523.652 508.171L528.471 441.672L583.741 479.087L523.652 508.171ZM531.653 448.256L527.744 502.122L576.457 478.552L531.653 448.256Z" fill="#D24A2E"/>
<path d="M243.587 254.788L233.333 265.027C233.199 265.159 233.092 265.316 233.019 265.49C232.946 265.663 232.909 265.849 232.909 266.037C232.909 266.225 232.946 266.412 233.019 266.585C233.092 266.758 233.199 266.916 233.333 267.047L234.929 268.643C235.062 268.776 235.219 268.882 235.392 268.954C235.566 269.026 235.752 269.063 235.939 269.063C236.127 269.063 236.313 269.026 236.487 268.954C236.66 268.882 236.817 268.776 236.95 268.643L247.203 258.403C247.337 258.27 247.442 258.113 247.514 257.94C247.587 257.767 247.624 257.581 247.624 257.393C247.624 257.205 247.587 257.019 247.514 256.846C247.442 256.673 247.337 256.515 247.203 256.383L245.607 254.798C245.477 254.661 245.321 254.553 245.147 254.478C244.974 254.404 244.788 254.365 244.599 254.364C244.411 254.363 244.224 254.4 244.05 254.473C243.876 254.545 243.719 254.653 243.587 254.788Z" fill="#D24A2E"/>
<path d="M544.342 22.8431L534.088 33.0831C533.952 33.214 533.844 33.3709 533.771 33.5444C533.697 33.7179 533.659 33.9044 533.659 34.0929C533.659 34.2814 533.697 34.468 533.771 34.6415C533.844 34.815 533.952 34.9718 534.088 35.1028L535.674 36.6882C535.806 36.8214 535.964 36.927 536.137 36.9991C536.31 37.0712 536.496 37.1083 536.684 37.1083C536.872 37.1083 537.058 37.0712 537.231 36.9991C537.405 36.927 537.562 36.8214 537.694 36.6882L547.948 26.4483C548.084 26.3174 548.192 26.1605 548.265 25.987C548.339 25.8135 548.377 25.6269 548.377 25.4384C548.377 25.2499 548.339 25.0634 548.265 24.8899C548.192 24.7164 548.084 24.5595 547.948 24.4286L546.362 22.8431C546.231 22.7075 546.074 22.5996 545.901 22.526C545.727 22.4523 545.54 22.4143 545.352 22.4143C545.163 22.4143 544.977 22.4523 544.803 22.526C544.63 22.5996 544.473 22.7075 544.342 22.8431Z" fill="#D24A2E"/>
<path opacity="0.29" d="M217.826 44.9388L224.15 57.9761C224.316 58.3116 224.607 58.5686 224.96 58.6914C225.314 58.8143 225.701 58.7931 226.039 58.6325L228.06 57.6226C228.397 57.4592 228.656 57.1685 228.779 56.8143C228.902 56.4602 228.88 56.0717 228.716 55.7342L222.392 42.6969C222.227 42.3612 221.935 42.1047 221.581 41.9836C221.227 41.8625 220.84 41.8865 220.503 42.0506L218.483 43.0605C218.315 43.1393 218.165 43.2508 218.041 43.3884C217.916 43.526 217.821 43.6869 217.76 43.8618C217.699 44.0367 217.673 44.222 217.685 44.407C217.696 44.5919 217.744 44.7727 217.826 44.9388Z" fill="#B495E4"/>
<path d="M338.498 122.88L344.822 135.907C344.902 136.075 345.014 136.225 345.153 136.35C345.291 136.474 345.453 136.569 345.629 136.63C345.805 136.691 345.991 136.717 346.177 136.705C346.362 136.694 346.544 136.646 346.711 136.563L348.731 135.553C348.899 135.474 349.05 135.361 349.174 135.223C349.298 135.084 349.394 134.922 349.455 134.747C349.516 134.571 349.542 134.385 349.53 134.199C349.519 134.013 349.47 133.832 349.388 133.665L343.094 120.638C343.014 120.47 342.902 120.319 342.763 120.195C342.625 120.071 342.463 119.976 342.287 119.915C342.111 119.853 341.925 119.828 341.739 119.839C341.554 119.851 341.372 119.899 341.205 119.981L339.185 120.991C339.014 121.068 338.861 121.179 338.733 121.316C338.606 121.453 338.507 121.615 338.443 121.791C338.379 121.967 338.351 122.154 338.36 122.341C338.37 122.528 338.417 122.711 338.498 122.88Z" fill="#3C7CC5"/>
<path d="M209.552 486.51L215.876 499.537C216.042 499.873 216.333 500.129 216.686 500.252C217.04 500.375 217.427 500.354 217.765 500.193L219.786 499.183C220.123 499.02 220.382 498.729 220.505 498.375C220.629 498.021 220.606 497.633 220.443 497.295L214.119 484.268C214.039 484.1 213.926 483.949 213.788 483.825C213.649 483.701 213.487 483.606 213.311 483.545C213.136 483.484 212.949 483.458 212.764 483.469C212.578 483.481 212.396 483.529 212.229 483.611L210.209 484.621C210.041 484.701 209.89 484.814 209.766 484.952C209.642 485.091 209.547 485.253 209.485 485.428C209.424 485.604 209.399 485.79 209.41 485.976C209.422 486.161 209.47 486.343 209.552 486.51Z" fill="#3C7CC5"/>
<path opacity="0.29" d="M555.404 167.515L568.688 161.729C569.033 161.578 569.304 161.297 569.443 160.947C569.581 160.597 569.575 160.206 569.426 159.861L568.527 157.841C568.376 157.496 568.094 157.225 567.744 157.087C567.394 156.949 567.003 156.955 566.658 157.104L553.373 162.9C553.203 162.974 553.049 163.08 552.92 163.214C552.791 163.347 552.689 163.505 552.622 163.678C552.554 163.851 552.521 164.035 552.525 164.221C552.53 164.406 552.571 164.589 552.646 164.759L553.545 166.778C553.617 166.95 553.723 167.105 553.856 167.235C553.99 167.365 554.147 167.467 554.32 167.536C554.493 167.604 554.678 167.638 554.864 167.634C555.05 167.631 555.233 167.59 555.404 167.515Z" fill="#3C7CC5"/>
<path opacity="0.29" d="M593.247 382.323L584.215 370.992C584.099 370.842 583.954 370.717 583.789 370.625C583.623 370.532 583.441 370.474 583.252 370.453C583.064 370.432 582.873 370.45 582.691 370.504C582.51 370.558 582.341 370.649 582.195 370.77L580.498 372.163C580.347 372.279 580.221 372.423 580.128 372.588C580.034 372.753 579.975 372.936 579.953 373.124C579.931 373.312 579.948 373.503 580.002 373.685C580.055 373.867 580.145 374.037 580.265 374.183L589.277 385.443C589.394 385.592 589.539 385.716 589.705 385.807C589.87 385.899 590.052 385.957 590.24 385.978C590.428 385.999 590.619 385.982 590.8 385.928C590.982 385.874 591.151 385.785 591.297 385.665L593.055 384.272C593.332 384.034 593.507 383.699 593.543 383.336C593.579 382.972 593.473 382.609 593.247 382.323Z" fill="#F0E430"/>
<g opacity="0.16">
<path d="M-48.0253 327.003C-24.3355 298.666 22.2663 279.539 70.6966 278.206C119.127 276.873 168.042 293.354 195.126 320.317C228.161 353.107 236.95 403.196 293.512 415.022C328.87 422.394 367.542 409.973 403.627 415.476C481.415 427.16 505.125 511.857 584.842 511.352C599.995 511.221 614.906 507.697 629.878 508.979C663.074 511.857 681.106 535.902 691.946 557.038C721.071 613.782 737.053 682.564 679.712 728.714C656.81 747.154 624.473 759.545 590.549 767.342C520.036 783.58 443.369 781.156 368.956 778.278C287.704 775.067 206.138 771.482 126.502 760.616C84.2135 754.809 40.8444 746.306 9.16369 726.725C-19.7591 708.891 -35.7914 683.836 -48.2778 658.782C-107.881 539.447 -101.82 406.034 -31.4475 289.345" fill="url(#paint11_linear_53_504)"/>
</g>
<g opacity="0.38">
<path d="M794.333 706.962C796.02 636.716 766.895 556.493 722.01 526.864C677.126 497.235 620.169 509.211 583.367 556.311C569.648 573.822 556.889 596.857 538.573 599.836C512.913 604.017 492.204 566.349 466.413 564.239C432.004 561.431 409.598 620.498 375.492 628.466C350.237 634.373 325.91 610.611 300.402 611.51C281.703 612.197 264.034 626.072 245.385 625.264C210.148 623.729 186.661 573.045 154.242 553.463C121.824 533.882 82.9405 548.717 57.1292 582.144C31.3179 615.57 17.6697 664.75 13.6895 714.021L794.333 706.962Z" fill="url(#paint12_linear_53_504)"/>
</g>
<g filter="url(#filter0_d_53_504)">
<path d="M0.243337 720.484C-1.47405 668.81 29.0651 603.997 75.0002 582.133C120.935 560.27 179.185 569.237 216.816 603.845C230.828 616.741 243.89 633.666 262.63 635.858C288.896 638.887 310.11 611.217 336.437 609.672C371.653 607.652 394.535 651.076 429.378 656.934C455.149 661.266 480.081 643.805 506.155 644.462C525.248 644.947 543.342 655.187 562.435 654.56C598.48 653.419 622.503 616.105 655.669 601.725C688.834 587.344 728.617 598.22 755.014 622.821C781.412 647.421 795.424 683.624 799.464 719.878L0.243337 720.484Z" fill="#E6E6E6"/>
</g>
<path d="M616.482 118.749L604.531 40.6873L678.187 69.3572L616.482 118.749ZM606.824 43.5452L617.816 115.346L674.58 69.9025L606.824 43.5452Z" fill="#F0E430"/>
</g>
</g>
<defs>
<filter id="filter0_d_53_504" x="-3.12556" y="570.263" width="805.89" height="170.521" filterUnits="userSpaceOnUse" color-interpolation-filters="sRGB">
<feFlood flood-opacity="0" result="BackgroundImageFix"/>
<feColorMatrix in="SourceAlpha" type="matrix" values="0 0 0 0 0 0 0 0 0 0 0 0 0 0 0 0 0 0 127 0" result="hardAlpha"/>
<feOffset dy="17"/>
<feGaussianBlur stdDeviation="1.65"/>
<feComposite in2="hardAlpha" operator="out"/>
<feColorMatrix type="matrix" values="0 0 0 0 0 0 0 0 0 0 0 0 0 0 0 0 0 0 0.45 0"/>
<feBlend mode="normal" in2="BackgroundImageFix" result="effect1_dropShadow_53_504"/>
<feBlend mode="normal" in="SourceGraphic" in2="effect1_dropShadow_53_504" result="shape"/>
</filter>
<linearGradient id="paint0_linear_53_504" x1="394.949" y1="714.001" x2="409.314" y2="508.958" gradientUnits="userSpaceOnUse">
<stop stop-color="white" stop-opacity="0"/>
<stop offset="1" stop-color="white"/>
</linearGradient>
<linearGradient id="paint1_linear_53_504" x1="412.739" y1="216.766" x2="398.425" y2="469.292" gradientUnits="userSpaceOnUse">
<stop offset="0.1" stop-color="#A0F50A"/>
<stop offset="1" stop-color="#DF6129"/>
</linearGradient>
<linearGradient id="paint2_linear_53_504" x1="386.898" y1="289.708" x2="408.39" y2="433.121" gradientUnits="userSpaceOnUse">
<stop offset="0.1" stop-color="#A0F50A"/>
<stop offset="1" stop-color="#DF6129"/>
</linearGradient>
<linearGradient id="paint3_linear_53_504" x1="339.033" y1="446.489" x2="335.157" y2="290.324" gradientUnits="userSpaceOnUse">
<stop stop-color="#3B0E59"/>
<stop offset="1" stop-color="#482B96"/>
</linearGradient>
<linearGradient id="paint4_linear_53_504" x1="465.302" y1="453.346" x2="466.079" y2="306.513" gradientUnits="userSpaceOnUse">
<stop stop-color="#3B0E59"/>
<stop offset="1" stop-color="#482B96"/>
</linearGradient>
<linearGradient id="paint5_linear_53_504" x1="402.516" y1="347.079" x2="388.161" y2="-1123.86" gradientUnits="userSpaceOnUse">
<stop stop-color="#3B0E59"/>
<stop offset="1" stop-color="#482B96"/>
</linearGradient>
<linearGradient id="paint6_linear_53_504" x1="402.516" y1="347.079" x2="388.161" y2="-1123.86" gradientUnits="userSpaceOnUse">
<stop stop-color="#3B0E59"/>
<stop offset="1" stop-color="#482B96"/>
</linearGradient>
<linearGradient id="paint7_linear_53_504" x1="382.725" y1="347.28" x2="368.37" y2="-1123.66" gradientUnits="userSpaceOnUse">
<stop stop-color="#3B0E59"/>
<stop offset="1" stop-color="#482B96"/>
</linearGradient>
<linearGradient id="paint8_linear_53_504" x1="440.238" y1="346.705" x2="425.883" y2="-1124.22" gradientUnits="userSpaceOnUse">
<stop stop-color="#3B0E59"/>
<stop offset="1" stop-color="#482B96"/>
</linearGradient>
<linearGradient id="paint9_linear_53_504" x1="401.677" y1="289.224" x2="405.756" y2="218.18" gradientUnits="userSpaceOnUse">
<stop stop-color="#A491FD"/>
<stop offset="1" stop-color="#643DF8"/>
</linearGradient>
<linearGradient id="paint10_linear_53_504" x1="402.678" y1="442.5" x2="402.678" y2="311.178" gradientUnits="userSpaceOnUse">
<stop stop-color="#3B0E59"/>
<stop offset="1" stop-color="#482B96"/>
</linearGradient>
<linearGradient id="paint11_linear_53_504" x1="311.131" y1="745.811" x2="324.456" y2="65.5902" gradientUnits="userSpaceOnUse">
<stop stop-color="white" stop-opacity="0"/>
<stop offset="1" stop-color="white"/>
</linearGradient>
<linearGradient id="paint12_linear_53_504" x1="13.6288" y1="612.369" x2="794.403" y2="612.369" gradientUnits="userSpaceOnUse">
<stop stop-color="white" stop-opacity="0"/>
<stop offset="1" stop-color="white"/>
</linearGradient>
<clipPath id="clip0_53_504">
<path d="M0 0H623C642.882 0 659 16.1178 659 36V681C659 700.882 642.882 717 623 717H0V0Z" fill="white"/>
</clipPath>
</defs>
</svg>
