<svg width="194" height="65" viewBox="0 0 194 65" fill="none" xmlns="http://www.w3.org/2000/svg">
<path d="M175.183 15.6747C175.183 17.0237 174.695 18.1574 173.721 19.0755C172.747 19.9941 171.585 20.4528 170.236 20.4528C168.962 20.4528 167.828 19.9749 166.835 19.0192C165.842 18.0641 165.345 16.9489 165.345 15.6747C165.345 14.3252 165.823 13.2013 166.779 12.3019C167.735 11.4024 168.887 10.9529 170.236 10.9529C171.622 10.9529 172.793 11.3931 173.75 12.2734C174.705 13.1544 175.183 14.2881 175.183 15.6747Z" fill="#00DE97"/>
<path d="M91.5783 15.6218L88.2936 20.2445C86.0771 18.4606 83.7116 17.5681 81.197 17.5681C78.6557 17.5681 76.5946 18.4403 75.0132 20.1842C73.4317 21.928 72.6407 24.0836 72.6407 26.6521C72.6407 29.1934 73.445 31.3357 75.0538 33.0795C76.6619 34.8234 78.7096 35.695 81.197 35.695C83.7922 35.695 86.3607 34.6274 88.902 32.4915L92.0649 37.1547C89.1183 40.1014 85.5094 41.575 81.2376 41.575C76.9124 41.575 73.2966 40.1559 70.3899 37.3171C67.4839 34.4783 66.0306 30.9233 66.0306 26.6521C66.0306 22.2998 67.4972 18.7239 70.4305 15.9263C73.3638 13.1281 76.993 11.7287 81.3188 11.7287C85.4821 11.7287 88.902 13.0266 91.5783 15.6218Z" fill="#2F0084"/>
<path d="M106.871 21.1774L106.79 26.9361H106.304C104.168 26.9361 102.445 27.436 101.134 28.4364C99.8223 29.4368 99.1664 30.9638 99.1664 33.0185V40.8858H92.8811V21.8264H99.1664V25.0299C100.897 22.4614 103.465 21.1774 106.871 21.1774Z" fill="#2F0084"/>
<path d="M128.471 31.3966C128.471 31.8831 128.431 32.4103 128.35 32.978H113.143C113.494 34.2759 114.136 35.2897 115.069 36.0192C116.002 36.7493 117.13 37.1141 118.455 37.1141C120.537 37.1141 122.605 36.344 124.66 34.8031L127.498 38.1284C124.957 40.3989 121.929 41.5344 118.415 41.5344C115.197 41.5344 112.46 40.6221 110.203 38.7971C107.945 36.9726 106.817 34.5056 106.817 31.3966C106.817 28.3687 107.905 25.9017 110.081 23.996C112.258 22.0898 114.859 21.137 117.888 21.137C120.942 21.137 123.47 22.0968 125.471 24.0163C127.471 25.9353 128.471 28.396 128.471 31.3966ZM113.102 29.3691H122.551C121.956 26.5843 120.429 25.1919 117.969 25.1919C116.725 25.1919 115.671 25.5775 114.805 26.3477C113.941 27.1184 113.373 28.1252 113.102 29.3691Z" fill="#2F0084"/>
<path d="M148.671 29.8555V40.8858H142.386V38.25C140.818 40.4126 138.722 41.4942 136.1 41.4942C134.154 41.4942 132.383 40.9264 130.788 39.7909C129.193 38.6554 128.395 37.1685 128.395 35.3301C128.395 32.9239 129.72 31.045 132.369 29.6931C133.721 29.0442 135.424 28.72 137.479 28.72C139.56 28.72 141.196 28.9497 142.386 29.4096C142.386 27.9499 142 26.9089 141.23 26.2872C140.46 25.6655 139.317 25.3547 137.803 25.3547C135.235 25.3547 133.207 25.814 131.72 26.7332L130.382 23.0025C132.761 21.7585 135.532 21.1368 138.696 21.1368C145.346 21.1368 148.671 24.0429 148.671 29.8555ZM134.275 34.8435C134.275 35.5464 134.573 36.1408 135.167 36.6274C135.708 37.1412 136.546 37.3981 137.682 37.3981C138.79 37.3981 139.804 37.0131 140.723 36.2423C141.642 35.4722 142.196 34.5327 142.386 33.4244V32.6537C141.385 32.1944 140.074 31.9642 138.452 31.9642C137.37 31.9642 136.404 32.1944 135.552 32.6537C134.701 33.1136 134.275 33.8431 134.275 34.8435Z" fill="#2F0084"/>
<path d="M158.818 15.0541V21.8266H167.65V26.8952H158.818V33.5459C158.818 35.3297 159.845 36.2223 161.9 36.2223C162.792 36.2223 163.576 36.1544 164.252 36.0193L164.455 40.5207C163.4 40.9533 161.873 41.1691 159.872 41.1691C157.628 41.1691 155.844 40.5683 154.519 39.3649C153.195 38.1621 152.532 36.4519 152.532 34.2348V26.8952H149.207V21.8266H152.573V15.0541H158.818Z" fill="#00DE97"/>
<path d="M173.407 40.8861H167.162V21.8266H173.407V40.8861Z" fill="#00DE97"/>
<path d="M193.959 24.1377L191.283 28.0714C189.769 26.828 188.025 26.2058 186.052 26.2058C184.537 26.2058 183.26 26.6859 182.219 27.6452C181.179 28.6055 180.658 29.8286 180.658 31.3155C180.658 32.7752 181.185 33.9989 182.24 34.9854C183.294 35.9718 184.537 36.4654 185.971 36.4654C187.647 36.4654 189.444 35.7758 191.364 34.3973L194 38.4934C191.323 40.5208 188.579 41.5345 185.768 41.5345C182.713 41.5345 180.07 40.5817 177.84 38.6755C175.609 36.7698 174.494 34.3295 174.494 31.3561C174.494 28.355 175.596 25.9019 177.799 23.9956C180.002 22.09 182.618 21.1372 185.646 21.1372C188.701 21.1372 191.472 22.1375 193.959 24.1377Z" fill="#2F0084"/>
<path d="M33.8466 3.8147e-06L55.8759 12.7185V38.1248L49.9525 41.5446V16.1221L27.9377 3.41175L5.92343 16.1221V41.5585L27.9377 54.2683L49.9391 41.5661V48.3896L27.9377 61.0918L5.91241 48.3757V41.5556L0 38.1422V12.7185L22.0287 3.8147e-06L27.9377 3.41175L33.8466 3.8147e-06Z" fill="#2F0084"/>
<path d="M29.4739 9.49964L42.2776 16.892L36.1477 20.4308L27.9382 15.6904L16.6121 22.2292V35.324L27.9382 41.8634L36.1483 37.123L42.2776 40.6617L27.9382 48.9409L10.4683 38.8547V18.6991L27.9382 8.61293L29.4739 9.49964Z" fill="#00DE97"/>
<path d="M28.509 21.6087L34.4342 25.0292V32.5242L27.9378 36.2746L21.442 32.5242V25.0292L27.9378 21.2787L28.509 21.6087Z" fill="#00DE97"/>
<path d="M88.1945 45.4064L87.8164 45.9463C87.1031 45.327 86.3434 45.0173 85.5367 45.0173C84.6581 45.0173 83.9431 45.3362 83.3921 45.9736C82.8412 46.6109 82.5657 47.3724 82.5657 48.2585C82.5657 49.1592 82.8447 49.9241 83.4031 50.5545C83.961 51.1849 84.6796 51.4998 85.5582 51.4998C86.4298 51.4998 87.2255 51.1286 87.9463 50.3869L88.3349 50.9703C87.5357 51.7845 86.6136 52.1916 85.5692 52.1916C84.4598 52.1916 83.5522 51.8112 82.8464 51.0515C82.1406 50.2918 81.788 49.3604 81.788 48.2585C81.788 47.1422 82.1424 46.2056 82.8522 45.4499C83.5615 44.6931 84.4638 44.315 85.5582 44.315C86.5881 44.315 87.4673 44.6786 88.1945 45.4064ZM93.9533 49.5553C93.9533 49.6631 93.9457 49.775 93.9312 49.8899H89.772C89.8224 50.3509 90.0242 50.7325 90.3768 51.0352C90.73 51.338 91.1406 51.4887 91.6086 51.4887C91.9113 51.4887 92.2193 51.4244 92.5324 51.2945C92.8456 51.1651 93.1141 50.9917 93.3374 50.776L93.7259 51.3269C93.1646 51.8889 92.4623 52.1696 91.6196 52.1696C90.8918 52.1696 90.269 51.9249 89.7505 51.4348C89.232 50.9453 88.9722 50.344 88.9722 49.6306C88.9722 48.9179 89.2245 48.3107 89.729 47.8102C90.233 47.3098 90.8379 47.0592 91.5436 47.0592C92.2355 47.0592 92.8096 47.3022 93.2672 47.7888C93.7242 48.2748 93.9533 48.8634 93.9533 49.5553ZM89.7934 49.22H93.186C93.1066 48.788 92.9192 48.4331 92.6241 48.1559C92.3289 47.8787 91.9687 47.7401 91.5436 47.7401C91.1116 47.7401 90.7335 47.8804 90.4093 48.1617C90.0851 48.4424 89.8798 48.795 89.7934 49.22ZM99.5496 49.0148V52.0403H98.7934V49.274C98.7934 48.8129 98.671 48.4424 98.4257 48.1617C98.181 47.8804 97.8284 47.7401 97.3673 47.7401C96.9277 47.7401 96.5728 47.8932 96.3032 48.1994C96.0329 48.5056 95.8978 48.8814 95.8978 49.3279V52.0403H95.1416V47.1996H95.8978V47.8804C96.3084 47.3329 96.8773 47.0592 97.6045 47.0592C98.1665 47.0592 98.631 47.2465 98.9987 47.6212C99.3658 47.9958 99.5496 48.4603 99.5496 49.0148ZM102.229 45.32V47.1996H103.741V47.8804H102.229V50.5168C102.229 50.812 102.312 51.037 102.477 51.1918C102.643 51.3467 102.873 51.4244 103.169 51.4244C103.385 51.4244 103.58 51.3989 103.752 51.3484L103.795 51.9753C103.558 52.0542 103.298 52.0942 103.018 52.0942C102.571 52.0942 102.202 51.9573 101.91 51.6836C101.618 51.4099 101.473 51.0497 101.473 50.6032V47.8804H100.598V47.1996H101.473V45.32H102.229ZM107.76 47.0592L107.75 47.8375H107.696C107.134 47.8375 106.671 47.9848 106.308 48.28C105.943 48.5752 105.762 48.9968 105.762 49.5442V52.0403H105.006V47.1996H105.762V48.0428C106.215 47.3869 106.882 47.0592 107.76 47.0592ZM112.671 47.8102C113.179 48.3107 113.433 48.9138 113.433 49.6202C113.433 50.326 113.177 50.9274 112.665 51.4244C112.154 51.9214 111.546 52.1696 110.84 52.1696C110.141 52.1696 109.536 51.9173 109.025 51.4134C108.513 50.9094 108.257 50.3115 108.257 49.6202C108.257 48.9138 108.513 48.3107 109.025 47.8102C109.536 47.3098 110.141 47.0592 110.84 47.0592C111.553 47.0592 112.163 47.3098 112.671 47.8102ZM109.554 48.302C109.201 48.6761 109.025 49.1157 109.025 49.6202C109.025 50.1242 109.203 50.5614 109.559 50.9326C109.916 51.3037 110.343 51.4887 110.84 51.4887C111.344 51.4887 111.772 51.3037 112.125 50.9326C112.478 50.5614 112.655 50.1242 112.655 49.6202C112.655 49.1012 112.48 48.6587 112.131 48.291C111.782 47.9239 111.351 47.7401 110.84 47.7401C110.336 47.7401 109.907 47.9274 109.554 48.302ZM122.249 44.1532V52.0403H121.493V51.2405C121.031 51.8599 120.405 52.1696 119.613 52.1696C118.921 52.1696 118.329 51.9173 117.835 51.4134C117.342 50.9094 117.095 50.3115 117.095 49.6202C117.095 48.9214 117.342 48.32 117.835 47.8155C118.329 47.3115 118.921 47.0592 119.613 47.0592C120.405 47.0592 121.031 47.3689 121.493 47.9883V44.1532H122.249ZM118.375 48.2858C118.041 48.6564 117.873 49.1012 117.873 49.6202C117.873 50.1387 118.044 50.5812 118.386 50.9488C118.729 51.3159 119.152 51.4998 119.656 51.4998C120.196 51.4998 120.642 51.32 120.996 50.9598C121.349 50.5991 121.525 50.1532 121.525 49.6202C121.525 49.0722 121.346 48.6204 120.99 48.2643C120.634 47.9077 120.189 47.729 119.656 47.729C119.137 47.729 118.711 47.9146 118.375 48.2858ZM128.526 49.5553C128.526 49.6631 128.519 49.775 128.504 49.8899H124.345C124.395 50.3509 124.597 50.7325 124.95 51.0352C125.303 51.338 125.713 51.4887 126.181 51.4887C126.484 51.4887 126.792 51.4244 127.105 51.2945C127.418 51.1651 127.687 50.9917 127.91 50.776L128.299 51.3269C127.737 51.8889 127.035 52.1696 126.192 52.1696C125.465 52.1696 124.842 51.9249 124.323 51.4348C123.805 50.9453 123.545 50.344 123.545 49.6306C123.545 48.9179 123.797 48.3107 124.302 47.8102C124.806 47.3098 125.411 47.0592 126.117 47.0592C126.808 47.0592 127.382 47.3022 127.84 47.7888C128.297 48.2748 128.526 48.8634 128.526 49.5553ZM124.366 49.22H127.759C127.68 48.788 127.493 48.4331 127.197 48.1559C126.902 47.8787 126.541 47.7401 126.117 47.7401C125.684 47.7401 125.306 47.8804 124.982 48.1617C124.658 48.4424 124.453 48.795 124.366 49.22ZM138.671 48.2585C138.671 49.4398 138.309 50.3654 137.585 51.0352C136.861 51.7051 135.913 52.0403 134.738 52.0403H132.512V44.4774H134.738C135.934 44.4774 136.888 44.816 137.601 45.4928C138.315 46.1696 138.671 47.0917 138.671 48.2585ZM134.738 45.1797H133.291V51.338H134.738C135.718 51.338 136.488 51.0642 137.05 50.5168C137.612 49.9693 137.893 49.2166 137.893 48.2585C137.893 47.279 137.611 46.521 137.045 45.9846C136.48 45.4476 135.711 45.1797 134.738 45.1797ZM107.333 54.1425V54.8448H104.87V61.7054H104.093V54.8448H101.629V54.1425H107.333ZM144.613 49.5553C144.613 49.6631 144.606 49.775 144.592 49.8899H140.432C140.482 50.3509 140.684 50.7325 141.037 51.0352C141.39 51.338 141.801 51.4887 142.269 51.4887C142.571 51.4887 142.879 51.4244 143.192 51.2945C143.506 51.1651 143.774 50.9917 143.997 50.776L144.387 51.3269C143.825 51.8889 143.122 52.1696 142.28 52.1696C141.552 52.1696 140.929 51.9249 140.411 51.4348C139.892 50.9453 139.632 50.344 139.632 49.6306C139.632 48.9179 139.885 48.3107 140.389 47.8102C140.893 47.3098 141.498 47.0592 142.204 47.0592C142.896 47.0592 143.47 47.3022 143.927 47.7888C144.384 48.2748 144.613 48.8634 144.613 49.5553ZM140.453 49.22H143.846C143.767 48.788 143.58 48.4331 143.284 48.1559C142.989 47.8787 142.629 47.7401 142.204 47.7401C141.772 47.7401 141.393 47.8804 141.069 48.1617C140.745 48.4424 140.54 48.795 140.453 49.22ZM149.172 47.5672L148.816 48.1072C148.456 47.841 148.02 47.7076 147.509 47.7076C147.235 47.7076 146.985 47.7563 146.758 47.8537C146.531 47.9506 146.417 48.1182 146.417 48.356C146.417 48.5502 146.511 48.7016 146.698 48.8095C146.871 48.9179 147.159 49.0293 147.563 49.1447C148.052 49.2815 148.387 49.3859 148.567 49.4578C149.187 49.6956 149.496 50.0952 149.496 50.6571C149.496 50.9958 149.381 51.284 149.151 51.5212C148.92 51.759 148.652 51.9266 148.346 52.0234C148.04 52.1209 147.721 52.1696 147.39 52.1696C147.022 52.1696 146.651 52.0977 146.277 51.9539C145.902 51.8094 145.589 51.6111 145.337 51.3594L145.748 50.841C145.935 51.0422 146.181 51.2028 146.488 51.3217C146.794 51.4406 147.091 51.4998 147.379 51.4998C147.674 51.4998 147.977 51.4313 148.287 51.2945C148.596 51.1576 148.751 50.9598 148.751 50.7C148.751 50.4263 148.542 50.221 148.124 50.0841C148.067 50.0627 147.944 50.025 147.757 49.9711C147.57 49.9171 147.415 49.8719 147.293 49.8359C147.069 49.771 146.88 49.7084 146.725 49.6469C146.571 49.5854 146.406 49.5031 146.234 49.3987C146.061 49.2937 145.93 49.1609 145.839 48.9985C145.749 48.8367 145.704 48.6477 145.704 48.4313C145.704 47.9778 145.884 47.6357 146.245 47.4049C146.605 47.1746 147.022 47.0592 147.498 47.0592C148.11 47.0592 148.668 47.2286 149.172 47.5672ZM154.942 49.2635V52.0403H154.186V51.1866C153.998 51.4887 153.744 51.7283 153.424 51.9051C153.103 52.0814 152.763 52.1696 152.403 52.1696C151.891 52.1696 151.436 52.0292 151.036 51.7486C150.636 51.4673 150.436 51.0822 150.436 50.5922C150.436 50.2106 150.557 49.8881 150.798 49.6254C151.04 49.3627 151.324 49.1806 151.652 49.0797C151.98 48.9788 152.327 48.9283 152.695 48.9283C153.321 48.9283 153.818 49.0148 154.186 49.1876C154.186 48.6906 154.064 48.3235 153.824 48.0857C153.582 47.8479 153.21 47.729 152.705 47.729C152.071 47.729 151.539 47.8549 151.106 48.1072L150.912 47.5023C151.43 47.2071 152.046 47.0592 152.759 47.0592C154.214 47.0592 154.942 47.794 154.942 49.2635ZM151.182 50.6032C151.182 50.9129 151.308 51.1396 151.56 51.284C151.812 51.4279 152.104 51.4998 152.435 51.4998C152.867 51.4998 153.267 51.3484 153.635 51.0463C154.002 50.7435 154.186 50.3834 154.186 49.9658V49.8145C153.818 49.6417 153.328 49.5553 152.716 49.5553C152.464 49.5553 152.23 49.5837 152.014 49.6417C151.797 49.6991 151.605 49.8087 151.436 49.9711C151.266 50.1329 151.182 50.344 151.182 50.6032ZM159.253 47.0592L159.241 47.8375H159.188C158.626 47.8375 158.163 47.9848 157.799 48.28C157.436 48.5752 157.254 48.9968 157.254 49.5442V52.0403H156.497V47.1996H157.254V48.0428C157.708 47.3869 158.374 47.0592 159.253 47.0592ZM163.174 47.0592L163.164 47.8375H163.11C162.548 47.8375 162.085 47.9848 161.721 48.28C161.357 48.5752 161.176 48.9968 161.176 49.5442V52.0403H160.419V47.1996H161.176V48.0428C161.629 47.3869 162.295 47.0592 163.174 47.0592ZM168.085 47.8102C168.592 48.3107 168.846 48.9138 168.846 49.6202C168.846 50.326 168.591 50.9274 168.079 51.4244C167.568 51.9214 166.959 52.1696 166.253 52.1696C165.555 52.1696 164.95 51.9173 164.438 51.4134C163.927 50.9094 163.671 50.3115 163.671 49.6202C163.671 48.9138 163.927 48.3107 164.438 47.8102C164.95 47.3098 165.555 47.0592 166.253 47.0592C166.967 47.0592 167.577 47.3098 168.085 47.8102ZM164.968 48.302C164.615 48.6761 164.438 49.1157 164.438 49.6202C164.438 50.1242 164.617 50.5614 164.973 50.9326C165.33 51.3037 165.756 51.4887 166.253 51.4887C166.757 51.4887 167.186 51.3037 167.539 50.9326C167.892 50.5614 168.069 50.1242 168.069 49.6202C168.069 49.1012 167.894 48.6587 167.544 48.291C167.195 47.9239 166.765 47.7401 166.253 47.7401C165.749 47.7401 165.321 47.9274 164.968 48.302ZM170.964 52.0403H170.186V44.1532H170.964V52.0403ZM173.481 52.0403H172.703V44.1532H173.481V52.0403ZM179.224 47.8102C179.732 48.3107 179.985 48.9138 179.985 49.6202C179.985 50.326 179.729 50.9274 179.218 51.4244C178.707 51.9214 178.098 52.1696 177.392 52.1696C176.693 52.1696 176.089 51.9173 175.577 51.4134C175.066 50.9094 174.81 50.3115 174.81 49.6202C174.81 48.9138 175.066 48.3107 175.577 47.8102C176.089 47.3098 176.693 47.0592 177.392 47.0592C178.106 47.0592 178.716 47.3098 179.224 47.8102ZM176.107 48.302C175.754 48.6761 175.577 49.1157 175.577 49.6202C175.577 50.1242 175.756 50.5614 176.112 50.9326C176.468 51.3037 176.895 51.4887 177.392 51.4887C177.897 51.4887 178.325 51.3037 178.678 50.9326C179.031 50.5614 179.207 50.1242 179.207 49.6202C179.207 49.1012 179.033 48.6587 178.683 48.291C178.334 47.9239 177.904 47.7401 177.392 47.7401C176.888 47.7401 176.46 47.9274 176.107 48.302ZM113.092 59.2204C113.092 59.3289 113.085 59.4402 113.071 59.5556H108.911C108.961 60.0167 109.163 60.3982 109.516 60.701C109.869 61.0031 110.28 61.1545 110.748 61.1545C111.05 61.1545 111.358 61.0895 111.671 60.9602C111.985 60.8303 112.253 60.6575 112.476 60.4412L112.865 60.9927C112.303 61.5541 111.601 61.8353 110.759 61.8353C110.031 61.8353 109.408 61.59 108.889 61.1005C108.371 60.6105 108.112 60.0091 108.112 59.2964C108.112 58.5831 108.364 57.9765 108.868 57.476C109.372 56.9749 109.977 56.725 110.683 56.725C111.374 56.725 111.949 56.9679 112.406 57.4539C112.864 57.9405 113.092 58.5291 113.092 59.2204ZM108.933 58.8858H112.326C112.246 58.4537 112.059 58.0988 111.764 57.8216C111.468 57.5444 111.108 57.4052 110.683 57.4052C110.251 57.4052 109.872 57.5461 109.549 57.8268C109.225 58.1075 109.019 58.4607 108.933 58.8858ZM118.57 57.5566L118.192 58.0756C117.724 57.6291 117.191 57.4052 116.593 57.4052C116.074 57.4052 115.635 57.5891 115.274 57.9567C114.914 58.3238 114.735 58.7669 114.735 59.2854C114.735 59.8114 114.913 60.2562 115.269 60.6198C115.626 60.9834 116.063 61.1655 116.582 61.1655C117.137 61.1655 117.681 60.9312 118.214 60.4632L118.592 61.0141C118.001 61.5616 117.342 61.8353 116.614 61.8353C115.88 61.8353 115.253 61.5923 114.735 61.1058C114.216 60.6198 113.956 60.0126 113.956 59.2854C113.956 58.5581 114.214 57.9492 114.729 57.4597C115.244 56.9697 115.861 56.725 116.582 56.725C117.374 56.725 118.037 57.0022 118.57 57.5566ZM124.221 58.6805V61.7054H123.464V58.9397C123.464 58.4787 123.342 58.1075 123.097 57.8268C122.852 57.5461 122.499 57.4052 122.038 57.4052C121.599 57.4052 121.244 57.5583 120.974 57.8645C120.704 58.1707 120.569 58.5471 120.569 58.9937V61.7054H119.812V56.8653H120.569V57.5461C120.979 56.9987 121.548 56.725 122.275 56.725C122.837 56.725 123.302 56.9123 123.67 57.2863C124.037 57.661 124.221 58.1255 124.221 58.6805ZM129.866 57.476C130.374 57.9765 130.627 58.5796 130.627 59.2854C130.627 59.9911 130.371 60.5925 129.86 61.0895C129.349 61.5865 128.74 61.8353 128.034 61.8353C127.335 61.8353 126.73 61.5831 126.219 61.0791C125.707 60.5745 125.452 59.9766 125.452 59.2854C125.452 58.5796 125.707 57.9765 126.219 57.476C126.73 56.9749 127.335 56.725 128.034 56.725C128.747 56.725 129.358 56.9749 129.866 57.476ZM126.748 57.9672C126.396 58.3418 126.219 58.7808 126.219 59.2854C126.219 59.7899 126.398 60.2272 126.754 60.5983C127.11 60.9689 127.537 61.1545 128.034 61.1545C128.539 61.1545 128.967 60.9689 129.32 60.5983C129.672 60.2272 129.849 59.7899 129.849 59.2854C129.849 58.7669 129.675 58.3238 129.325 57.9567C128.976 57.5891 128.546 57.4052 128.034 57.4052C127.53 57.4052 127.102 57.5925 126.748 57.9672ZM132.745 61.7054H131.967V53.8183H132.745V61.7054ZM138.487 57.476C138.995 57.9765 139.249 58.5796 139.249 59.2854C139.249 59.9911 138.993 60.5925 138.482 61.0895C137.97 61.5865 137.362 61.8353 136.656 61.8353C135.957 61.8353 135.352 61.5831 134.841 61.0791C134.329 60.5745 134.074 59.9766 134.074 59.2854C134.074 58.5796 134.329 57.9765 134.841 57.476C135.352 56.9749 135.957 56.725 136.656 56.725C137.369 56.725 137.979 56.9749 138.487 57.476ZM135.37 57.9672C135.017 58.3418 134.841 58.7808 134.841 59.2854C134.841 59.7899 135.019 60.2272 135.376 60.5983C135.732 60.9689 136.159 61.1545 136.656 61.1545C137.16 61.1545 137.589 60.9689 137.941 60.5983C138.294 60.2272 138.471 59.7899 138.471 59.2854C138.471 58.7669 138.296 58.3238 137.947 57.9567C137.598 57.5891 137.167 57.4052 136.656 57.4052C136.151 57.4052 135.723 57.5925 135.37 57.9672ZM138.449 54.164L136.948 55.9473H136.364L137.455 54.164H138.449ZM144.565 57.643V56.8653H145.321V61.4572C145.321 62.2784 145.085 62.9476 144.613 63.4667C144.141 63.9851 143.506 64.2444 142.706 64.2444C141.842 64.2444 141.121 63.9457 140.545 63.3478L141.01 62.8508C141.478 63.3188 142.044 63.5531 142.706 63.5531C143.297 63.5531 143.754 63.353 144.078 62.9534C144.402 62.5539 144.565 62.0545 144.565 61.4572V60.9167C144.11 61.5291 143.488 61.8353 142.695 61.8353C142.004 61.8353 141.411 61.5831 140.918 61.0791C140.424 60.5745 140.178 59.9766 140.178 59.2854C140.178 58.5865 140.424 57.9851 140.918 57.4812C141.411 56.9772 142.004 56.725 142.695 56.725C143.488 56.725 144.11 57.0312 144.565 57.643ZM141.458 57.9509C141.123 58.3221 140.956 58.7669 140.956 59.2854C140.956 59.8038 141.127 60.2469 141.469 60.614C141.811 60.9817 142.234 61.1655 142.738 61.1655C143.279 61.1655 143.725 60.9851 144.078 60.625C144.431 60.2649 144.607 59.8183 144.607 59.2854C144.607 58.7379 144.429 58.2861 144.073 57.9295C143.716 57.5728 143.271 57.3948 142.738 57.3948C142.22 57.3948 141.793 57.5804 141.458 57.9509ZM147.903 61.7054H147.146V56.8653H147.903V61.7054ZM148.022 54.9962C148.022 55.133 147.975 55.2502 147.881 55.3476C147.788 55.4445 147.669 55.4932 147.525 55.4932C147.395 55.4932 147.28 55.4427 147.179 55.3418C147.078 55.2409 147.028 55.1261 147.028 54.9962C147.028 54.8593 147.075 54.7422 147.168 54.6453C147.262 54.5479 147.381 54.4992 147.525 54.4992C147.669 54.4992 147.788 54.5461 147.881 54.6395C147.975 54.7335 148.022 54.8524 148.022 54.9962ZM153.921 57.5566L153.542 58.0756C153.074 57.6291 152.542 57.4052 151.944 57.4052C151.425 57.4052 150.986 57.5891 150.625 57.9567C150.265 58.3238 150.085 58.7669 150.085 59.2854C150.085 59.8114 150.264 60.2562 150.62 60.6198C150.976 60.9834 151.414 61.1655 151.933 61.1655C152.487 61.1655 153.031 60.9312 153.564 60.4632L153.942 61.0141C153.352 61.5616 152.692 61.8353 151.965 61.8353C151.23 61.8353 150.604 61.5923 150.085 61.1058C149.566 60.6198 149.307 60.0126 149.307 59.2854C149.307 58.5581 149.565 57.9492 150.08 57.4597C150.595 56.9697 151.212 56.725 151.933 56.725C152.725 56.725 153.388 57.0022 153.921 57.5566ZM159.198 57.476C159.706 57.9765 159.96 58.5796 159.96 59.2854C159.96 59.9911 159.704 60.5925 159.193 61.0895C158.681 61.5865 158.073 61.8353 157.367 61.8353C156.668 61.8353 156.063 61.5831 155.552 61.0791C155.04 60.5745 154.785 59.9766 154.785 59.2854C154.785 58.5796 155.04 57.9765 155.552 57.476C156.063 56.9749 156.668 56.725 157.367 56.725C158.08 56.725 158.691 56.9749 159.198 57.476ZM156.081 57.9672C155.728 58.3418 155.552 58.7808 155.552 59.2854C155.552 59.7899 155.731 60.2272 156.087 60.5983C156.443 60.9689 156.87 61.1545 157.367 61.1545C157.871 61.1545 158.3 60.9689 158.653 60.5983C159.005 60.2272 159.182 59.7899 159.182 59.2854C159.182 58.7669 159.007 58.3238 158.658 57.9567C158.309 57.5891 157.879 57.4052 157.367 57.4052C156.863 57.4052 156.435 57.5925 156.081 57.9672Z" fill="#2F0084"/>
<path d="M191.002 14.1663C191.516 14.1663 192.009 14.2945 192.481 14.5526C192.954 14.8089 193.325 15.1777 193.595 15.6573C193.865 16.1369 194 16.6392 194 17.1646C194 17.6865 193.867 18.1835 193.603 18.6579C193.337 19.1311 192.968 19.4994 192.496 19.7656C192.021 20.03 191.524 20.1622 191.002 20.1622C190.479 20.1622 189.982 20.03 189.508 19.7656C189.035 19.4994 188.666 19.1311 188.401 18.6579C188.136 18.1835 188.004 17.6865 188.004 17.1646C188.004 16.6392 188.139 16.1369 188.409 15.6573C188.679 15.1777 189.05 14.8089 189.523 14.5526C189.994 14.2945 190.487 14.1663 191.002 14.1663ZM191.005 14.7596C190.592 14.7596 190.196 14.8622 189.818 15.0681C189.44 15.274 189.142 15.5692 188.924 15.9554C188.706 16.3399 188.597 16.7447 188.597 17.1657C188.597 17.585 188.704 17.9858 188.916 18.3656C189.129 18.746 189.425 19.0424 189.806 19.2564C190.187 19.4704 190.587 19.5771 191.005 19.5771C191.424 19.5771 191.824 19.4704 192.203 19.2564C192.584 19.0424 192.88 18.746 193.094 18.3656C193.308 17.9858 193.414 17.585 193.414 17.1657C193.414 16.7447 193.305 16.3399 193.087 15.9554C192.87 15.5692 192.572 15.274 192.192 15.0681C191.811 14.8622 191.416 14.7596 191.005 14.7596ZM189.647 18.7675V15.593H190.291C190.895 15.593 191.234 15.5959 191.306 15.6011C191.52 15.6185 191.686 15.6614 191.804 15.7281C191.922 15.7936 192.021 15.8951 192.101 16.0325C192.18 16.1688 192.22 16.3214 192.22 16.4866C192.22 16.7169 192.145 16.9117 191.996 17.0747C191.846 17.2376 191.636 17.338 191.367 17.378C191.463 17.4139 191.538 17.454 191.59 17.4969C191.641 17.5398 191.714 17.621 191.804 17.7399C191.829 17.7723 191.906 17.9005 192.04 18.1273L192.413 18.7675H191.611L191.348 18.2502C191.17 17.9046 191.023 17.6854 190.907 17.596C190.79 17.5062 190.642 17.4609 190.464 17.4609H190.297V18.7675H189.647ZM190.297 16.9558H190.557C190.928 16.9558 191.16 16.9413 191.249 16.9129C191.339 16.885 191.409 16.8358 191.461 16.765C191.513 16.6937 191.539 16.6136 191.539 16.5232C191.539 16.4362 191.513 16.3573 191.463 16.2895C191.412 16.221 191.34 16.1717 191.246 16.1422C191.153 16.1126 190.923 16.0981 190.557 16.0981H190.297V16.9558Z" fill="#2F0084"/>
</svg>
