<svg width="56" height="62" viewBox="0 0 56 62" fill="none" xmlns="http://www.w3.org/2000/svg">
<path d="M33.8466 5.65038e-06L55.8759 12.7185V38.1248L49.9525 41.5446V16.1221L27.9377 3.41175L5.92343 16.1221V41.5585L27.9377 54.2683L49.9391 41.5661V48.3896L27.9377 61.0918L5.91241 48.3757V41.5556L0 38.1422V12.7185L22.0287 5.65038e-06L27.9377 3.41175L33.8466 5.65038e-06Z" fill="#2F0084"/>
<path d="M29.4739 9.49964L42.2776 16.892L36.1477 20.4308L27.9382 15.6904L16.6121 22.2292V35.324L27.9382 41.8634L36.1483 37.123L42.2776 40.6617L27.9382 48.9409L10.4683 38.8547V18.6991L27.9382 8.61293L29.4739 9.49964Z" fill="#00DE97"/>
<path d="M28.509 21.6087L34.4342 25.0292V32.5242L27.9378 36.2746L21.442 32.5242V25.0292L27.9378 21.2787L28.509 21.6087Z" fill="#00DE97"/>
</svg>
